<svg width="109" height="109" viewBox="0 0 109 109" fill="none" xmlns="http://www.w3.org/2000/svg">
<g clip-path="url(#clip0_1494_7088)">
<circle cx="1.75806" cy="1.75806" r="1.75806" fill="white"/>
<circle cx="12.3065" cy="1.75806" r="1.75806" fill="white"/>
<circle cx="22.8548" cy="1.75806" r="1.75806" fill="white"/>
<circle cx="33.4032" cy="1.75806" r="1.75806" fill="white"/>
<circle cx="43.9516" cy="1.75806" r="1.75806" fill="white"/>
<circle cx="54.5" cy="1.75806" r="1.75806" fill="white"/>
<circle cx="65.0484" cy="1.75806" r="1.75806" fill="white"/>
<circle cx="75.5968" cy="1.75806" r="1.75806" fill="white"/>
<circle cx="86.1452" cy="1.75806" r="1.75806" fill="white"/>
<circle cx="96.6936" cy="1.75806" r="1.75806" fill="white"/>
<circle cx="107.242" cy="1.75806" r="1.75806" fill="white"/>
<circle cx="1.75806" cy="12.3065" r="1.75806" fill="white"/>
<circle cx="12.3065" cy="12.3065" r="1.75806" fill="white"/>
<circle cx="22.8548" cy="12.3065" r="1.75806" fill="white"/>
<circle cx="33.4032" cy="12.3065" r="1.75806" fill="white"/>
<circle cx="43.9516" cy="12.3065" r="1.75806" fill="white"/>
<circle cx="54.5" cy="12.3065" r="1.75806" fill="white"/>
<circle cx="65.0484" cy="12.3065" r="1.75806" fill="white"/>
<circle cx="75.5968" cy="12.3065" r="1.75806" fill="white"/>
<circle cx="86.1452" cy="12.3065" r="1.75806" fill="white"/>
<circle cx="96.6936" cy="12.3065" r="1.75806" fill="white"/>
<circle cx="107.242" cy="12.3065" r="1.75806" fill="white"/>
<circle cx="1.75806" cy="22.8548" r="1.75806" fill="white"/>
<circle cx="12.3065" cy="22.8548" r="1.75806" fill="white"/>
<circle cx="22.8548" cy="22.8548" r="1.75806" fill="white"/>
<circle cx="33.4032" cy="22.8548" r="1.75806" fill="white"/>
<circle cx="43.9516" cy="22.8548" r="1.75806" fill="white"/>
<circle cx="54.5" cy="22.8548" r="1.75806" fill="white"/>
<circle cx="65.0484" cy="22.8548" r="1.75806" fill="white"/>
<circle cx="75.5968" cy="22.8548" r="1.75806" fill="white"/>
<circle cx="86.1452" cy="22.8548" r="1.75806" fill="white"/>
<circle cx="96.6936" cy="22.8548" r="1.75806" fill="white"/>
<circle cx="107.242" cy="22.8548" r="1.75806" fill="white"/>
<circle cx="1.75806" cy="33.4032" r="1.75806" fill="white"/>
<circle cx="12.3065" cy="33.4032" r="1.75806" fill="white"/>
<circle cx="22.8548" cy="33.4032" r="1.75806" fill="white"/>
<circle cx="33.4032" cy="33.4032" r="1.75806" fill="white"/>
<circle cx="43.9516" cy="33.4032" r="1.75806" fill="white"/>
<circle cx="54.5" cy="33.4032" r="1.75806" fill="white"/>
<circle cx="65.0484" cy="33.4032" r="1.75806" fill="white"/>
<circle cx="75.5968" cy="33.4032" r="1.75806" fill="white"/>
<circle cx="86.1452" cy="33.4032" r="1.75806" fill="white"/>
<circle cx="96.6936" cy="33.4032" r="1.75806" fill="white"/>
<circle cx="107.242" cy="33.4032" r="1.75806" fill="white"/>
<circle cx="1.75806" cy="43.9516" r="1.75806" fill="white"/>
<circle cx="12.3065" cy="43.9516" r="1.75806" fill="white"/>
<circle cx="22.8548" cy="43.9516" r="1.75806" fill="white"/>
<circle cx="33.4032" cy="43.9516" r="1.75806" fill="white"/>
<circle cx="43.9516" cy="43.9516" r="1.75806" fill="white"/>
<circle cx="54.5" cy="43.9516" r="1.75806" fill="white"/>
<circle cx="65.0484" cy="43.9516" r="1.75806" fill="white"/>
<circle cx="75.5968" cy="43.9516" r="1.75806" fill="white"/>
<circle cx="86.1452" cy="43.9516" r="1.75806" fill="white"/>
<circle cx="96.6936" cy="43.9516" r="1.75806" fill="white"/>
<circle cx="107.242" cy="43.9516" r="1.75806" fill="white"/>
<circle cx="1.75806" cy="54.5" r="1.75806" fill="white"/>
<circle cx="12.3065" cy="54.5" r="1.75806" fill="white"/>
<circle cx="22.8548" cy="54.5" r="1.75806" fill="white"/>
<circle cx="33.4032" cy="54.5" r="1.75806" fill="white"/>
<circle cx="43.9516" cy="54.5" r="1.75806" fill="white"/>
<circle cx="54.5" cy="54.5" r="1.75806" fill="white"/>
<circle cx="65.0484" cy="54.5" r="1.75806" fill="white"/>
<circle cx="75.5968" cy="54.5" r="1.75806" fill="white"/>
<circle cx="86.1452" cy="54.5" r="1.75806" fill="white"/>
<circle cx="96.6936" cy="54.5" r="1.75806" fill="white"/>
<circle cx="107.242" cy="54.5" r="1.75806" fill="white"/>
<circle cx="1.75806" cy="65.0484" r="1.75806" fill="white"/>
<circle cx="12.3065" cy="65.0484" r="1.75806" fill="white"/>
<circle cx="22.8548" cy="65.0484" r="1.75806" fill="white"/>
<circle cx="33.4032" cy="65.0484" r="1.75806" fill="white"/>
<circle cx="43.9516" cy="65.0484" r="1.75806" fill="white"/>
<circle cx="54.5" cy="65.0484" r="1.75806" fill="white"/>
<circle cx="65.0484" cy="65.0484" r="1.75806" fill="white"/>
<circle cx="75.5968" cy="65.0484" r="1.75806" fill="white"/>
<circle cx="86.1452" cy="65.0484" r="1.75806" fill="white"/>
<circle cx="96.6936" cy="65.0484" r="1.75806" fill="white"/>
<circle cx="107.242" cy="65.0484" r="1.75806" fill="white"/>
<circle cx="1.75806" cy="75.5968" r="1.75806" fill="white"/>
<circle cx="12.3065" cy="75.5968" r="1.75806" fill="white"/>
<circle cx="22.8548" cy="75.5968" r="1.75806" fill="white"/>
<circle cx="33.4032" cy="75.5968" r="1.75806" fill="white"/>
<circle cx="43.9516" cy="75.5968" r="1.75806" fill="white"/>
<circle cx="54.5" cy="75.5968" r="1.75806" fill="white"/>
<circle cx="65.0484" cy="75.5968" r="1.75806" fill="white"/>
<circle cx="75.5968" cy="75.5968" r="1.75806" fill="white"/>
<circle cx="86.1452" cy="75.5968" r="1.75806" fill="white"/>
<circle cx="96.6936" cy="75.5968" r="1.75806" fill="white"/>
<circle cx="107.242" cy="75.5968" r="1.75806" fill="white"/>
<circle cx="1.75806" cy="86.1452" r="1.75806" fill="white"/>
<circle cx="12.3065" cy="86.1452" r="1.75806" fill="white"/>
<circle cx="22.8548" cy="86.1452" r="1.75806" fill="white"/>
<circle cx="33.4032" cy="86.1452" r="1.75806" fill="white"/>
<circle cx="43.9516" cy="86.1452" r="1.75806" fill="white"/>
<circle cx="54.5" cy="86.1452" r="1.75806" fill="white"/>
<circle cx="65.0484" cy="86.1452" r="1.75806" fill="white"/>
<circle cx="75.5968" cy="86.1452" r="1.75806" fill="white"/>
<circle cx="86.1452" cy="86.1452" r="1.75806" fill="white"/>
<circle cx="96.6936" cy="86.1452" r="1.75806" fill="white"/>
<circle cx="107.242" cy="86.1452" r="1.75806" fill="white"/>
<circle cx="1.75806" cy="96.6936" r="1.75806" fill="white"/>
<circle cx="12.3065" cy="96.6936" r="1.75806" fill="white"/>
<circle cx="22.8548" cy="96.6936" r="1.75806" fill="white"/>
<circle cx="33.4032" cy="96.6936" r="1.75806" fill="white"/>
<circle cx="43.9516" cy="96.6936" r="1.75806" fill="white"/>
<circle cx="54.5" cy="96.6936" r="1.75806" fill="white"/>
<circle cx="65.0484" cy="96.6936" r="1.75806" fill="white"/>
<circle cx="75.5968" cy="96.6936" r="1.75806" fill="white"/>
<circle cx="86.1452" cy="96.6936" r="1.75806" fill="white"/>
<circle cx="96.6936" cy="96.6936" r="1.75806" fill="white"/>
<circle cx="107.242" cy="96.6936" r="1.75806" fill="white"/>
<circle cx="1.75806" cy="107.242" r="1.75806" fill="white"/>
<circle cx="12.3065" cy="107.242" r="1.75806" fill="white"/>
<circle cx="22.8548" cy="107.242" r="1.75806" fill="white"/>
<circle cx="33.4032" cy="107.242" r="1.75806" fill="white"/>
<circle cx="43.9516" cy="107.242" r="1.75806" fill="white"/>
<circle cx="54.5" cy="107.242" r="1.75806" fill="white"/>
<circle cx="65.0484" cy="107.242" r="1.75806" fill="white"/>
<circle cx="75.5968" cy="107.242" r="1.75806" fill="white"/>
<circle cx="86.1452" cy="107.242" r="1.75806" fill="white"/>
<circle cx="96.6936" cy="107.242" r="1.75806" fill="white"/>
<circle cx="107.242" cy="107.242" r="1.75806" fill="white"/>
</g>
<defs>
<clipPath id="clip0_1494_7088">
<rect width="109" height="109" fill="white"/>
</clipPath>
</defs>
</svg>
